<svg width="173" height="43" viewBox="0 0 173 43" fill="none" xmlns="http://www.w3.org/2000/svg">
<path id="Skillinit" d="M0.864 18.096H5.928C6.008 18.592 6.24 19.024 6.624 19.392C7.008 19.76 7.52 20.048 8.16 20.256C8.816 20.448 9.584 20.544 10.464 20.544C11.68 20.544 12.64 20.392 13.344 20.088C14.048 19.768 14.4 19.304 14.4 18.696C14.4 18.232 14.2 17.872 13.8 17.616C13.4 17.36 12.632 17.176 11.496 17.064L8.136 16.752C5.656 16.528 3.856 15.968 2.736 15.072C1.616 14.16 1.056 12.936 1.056 11.4C1.056 10.152 1.416 9.096 2.136 8.232C2.872 7.368 3.896 6.72 5.208 6.288C6.536 5.84 8.08 5.616 9.84 5.616C11.568 5.616 13.104 5.864 14.448 6.36C15.792 6.84 16.856 7.528 17.64 8.424C18.44 9.32 18.872 10.36 18.936 11.544H13.896C13.832 11.112 13.624 10.744 13.272 10.44C12.936 10.12 12.472 9.88 11.88 9.72C11.288 9.544 10.576 9.456 9.744 9.456C8.624 9.456 7.736 9.608 7.08 9.912C6.424 10.2 6.096 10.632 6.096 11.208C6.096 11.624 6.288 11.96 6.672 12.216C7.072 12.472 7.784 12.648 8.808 12.744L12.384 13.104C14.096 13.264 15.464 13.544 16.488 13.944C17.512 14.328 18.256 14.864 18.72 15.552C19.184 16.24 19.416 17.096 19.416 18.12C19.416 19.384 19.04 20.488 18.288 21.432C17.536 22.36 16.48 23.088 15.12 23.616C13.76 24.128 12.176 24.384 10.368 24.384C8.512 24.384 6.872 24.128 5.448 23.616C4.04 23.088 2.936 22.352 2.136 21.408C1.336 20.448 0.912 19.344 0.864 18.096ZM26.3968 20.088L25.0528 19.632L32.6368 10.296H37.7968L25.8688 24H21.4768V5.52H26.3968V20.088ZM28.7248 17.304L32.4208 14.712L38.1568 24H32.6368L28.7248 17.304ZM39.3128 10.08L41.7848 10.56L44.2328 10.08V24H39.3128V10.08ZM41.7608 8.952C40.9128 8.952 40.2248 8.744 39.6968 8.328C39.1688 7.896 38.9048 7.312 38.9048 6.576C38.9048 5.856 39.1688 5.28 39.6968 4.848C40.2248 4.416 40.9128 4.2 41.7608 4.2C42.6408 4.2 43.3368 4.416 43.8488 4.848C44.3768 5.28 44.6408 5.856 44.6408 6.576C44.6408 7.312 44.3768 7.896 43.8488 8.328C43.3368 8.744 42.6408 8.952 41.7608 8.952ZM46.9299 5.52H51.8499V24H46.9299V5.52ZM54.5471 5.52H59.4671V24H54.5471V5.52ZM62.1643 10.08L64.6363 10.56L67.0843 10.08V24H62.1643V10.08ZM64.6123 8.952C63.7643 8.952 63.0763 8.744 62.5483 8.328C62.0203 7.896 61.7563 7.312 61.7563 6.576C61.7563 5.856 62.0203 5.28 62.5483 4.848C63.0763 4.416 63.7643 4.2 64.6123 4.2C65.4923 4.2 66.1883 4.416 66.7003 4.848C67.2283 5.28 67.4923 5.856 67.4923 6.576C67.4923 7.312 67.2283 7.896 66.7003 8.328C66.1883 8.744 65.4923 8.952 64.6123 8.952ZM69.1335 10.296H74.0535L74.9415 15.768V24H70.0455V15.024L69.1335 10.296ZM79.9815 9.888C81.2935 9.888 82.4135 10.152 83.3415 10.68C84.2695 11.208 84.9735 11.952 85.4535 12.912C85.9495 13.872 86.1975 15.008 86.1975 16.32V24H81.3015V17.04C81.3015 16.016 81.0375 15.232 80.5095 14.688C79.9975 14.144 79.2535 13.872 78.2775 13.872C77.6055 13.872 77.0135 14.016 76.5015 14.304C76.0055 14.592 75.6215 15 75.3495 15.528C75.0775 16.056 74.9415 16.68 74.9415 17.4L73.4295 16.608C73.6215 15.152 74.0295 13.928 74.6535 12.936C75.2775 11.928 76.0455 11.168 76.9575 10.656C77.8695 10.144 78.8775 9.888 79.9815 9.888ZM88.719 10.08L91.191 10.56L93.639 10.08V24H88.719V10.08ZM91.167 8.952C90.319 8.952 89.631 8.744 89.103 8.328C88.575 7.896 88.311 7.312 88.311 6.576C88.311 5.856 88.575 5.28 89.103 4.848C89.631 4.416 90.319 4.2 91.167 4.2C92.047 4.2 92.743 4.416 93.255 4.848C93.783 5.28 94.047 5.856 94.047 6.576C94.047 7.312 93.783 7.896 93.255 8.328C92.743 8.744 92.047 8.952 91.167 8.952ZM95.1362 13.92V11.784L97.9202 10.656L100.032 6.6H102.816V10.296H108.576V13.92H102.816V17.952C102.816 18.944 103.016 19.64 103.416 20.04C103.816 20.44 104.544 20.64 105.6 20.64C106.272 20.64 106.864 20.584 107.376 20.472C107.904 20.344 108.384 20.184 108.816 19.992V23.688C108.336 23.864 107.704 24.024 106.92 24.168C106.136 24.312 105.328 24.384 104.496 24.384C102.976 24.384 101.728 24.152 100.752 23.688C99.7922 23.224 99.0802 22.56 98.6162 21.696C98.1522 20.816 97.9202 19.792 97.9202 18.624V13.92H95.1362Z" fill="#272436"/>
</svg>
